<svg width="51" height="51" viewBox="0 0 51 51" fill="none" xmlns="http://www.w3.org/2000/svg">
<path d="M25.5 51C39.5833 51 51 39.5833 51 25.5C51 11.4167 39.5833 0 25.5 0C11.4167 0 0 11.4167 0 25.5C0 39.5833 11.4167 51 25.5 51Z" fill="black"/>
<path fill-rule="evenodd" clip-rule="evenodd" d="M10.3594 17.1404V33.8672L15.385 33.837V27.0518C15.9827 27.0518 16.5444 27.0758 17.057 27.4338C17.4473 27.7938 17.7574 28.2361 17.9663 28.7305L20.6552 33.837H26.2969C25.1778 31.61 24.2813 28.7932 22.3565 27.102C21.9503 26.8347 21.5092 26.6282 21.0463 26.4889C21.6649 26.359 22.2613 26.1353 22.816 25.8254C24.2134 24.9721 25.0151 23.4128 24.9769 21.7845C25.0058 20.8246 24.7426 19.8793 24.224 19.0805C23.0501 17.2829 20.6659 17.0701 18.6997 17.1404H10.3594ZM17.5264 23.9155H15.4046V20.4777H17.6144C18.7112 20.3676 20.0664 20.8585 19.9903 22.1564C20.0413 23.5573 18.6187 23.8367 17.5264 23.9155Z" fill="#FFB749"/>
<path d="M31.4581 27.9616L26.2969 28.2625C26.3974 29.7769 27.0954 31.2056 28.2601 32.2805C29.414 33.3351 31.4826 33.8625 34.466 33.8625C36.9403 33.9328 39.7687 33.321 41.2949 31.2032C41.91 30.3557 42.237 29.359 42.2342 28.3401C42.2517 26.4442 40.9864 24.8862 39.2894 24.157C37.6629 23.4892 35.9548 23.0037 34.2022 22.711C33.557 22.6392 32.937 22.4371 32.3868 22.1189C31.7984 21.7226 31.9372 20.8998 32.4607 20.5272C33.9536 19.5399 36.3613 20.3638 36.5453 22.2354L41.6642 21.9636C41.5732 20.5339 40.7876 19.1684 39.5534 18.2949C38.0099 17.4426 36.2205 17.0431 34.4239 17.1497C32.9502 17.0951 31.4795 17.3096 30.0965 17.7805C28.3753 18.4178 26.9575 19.9729 26.9618 21.8762C26.9289 23.0597 27.5048 24.232 28.4923 24.9917C29.9987 25.9971 31.7415 26.662 33.5795 26.9328C34.5711 27.0648 35.5189 27.3962 36.3553 27.9033C37.1247 28.4731 37.119 29.6175 36.3342 30.1938C35.4672 30.8018 34.1886 30.8722 33.2152 30.4779C32.1712 30.055 31.5601 29.0687 31.4581 27.9616Z" fill="#FFB749"/>
</svg>
